<?xml version="1.0" encoding="UTF-8"?>
<svg xmlns="http://www.w3.org/2000/svg" viewBox="96.9 180.9 90.95 12.45">
  <path
     fill="#0c1975"
     d="m 136.8406,183.92087 c 0.635,0 1.19063,0.13229 1.71979,0.39687 l -0.76729,1.82563 c -0.26458,-0.1323 -0.635,-0.21167 -0.92604,-0.21167 -1.08479,0 -1.95792,0.87312 -1.95792,1.95792 v 5.13291 c -1.08479,0 -1.98437,-0.89958 -1.98437,-1.98437 v -2.91042 c -0.10583,-1.56104 -0.97896,-2.80458 -0.97896,-2.80458 0,0 1.69333,-0.97896 1.71979,-0.97896 0,0 0.18521,0.26458 0.42334,0.74083 0.68791,-0.74083 1.66687,-1.16416 2.75166,-1.16416 z m -18.97062,9.04875 c -1.08479,0 -1.98438,-0.89959 -1.98438,-1.98438 v -9.81604 h 1.98438 z m 3.43958,0 c -1.08479,0 -1.98437,-0.89959 -1.98437,-1.98438 v -9.81604 h 1.98437 z m 3.175,-3.9423 v 0.0265 l 4.39208,-2.54 -0.0265,-0.0265 a 2.6220208,2.6220208 0 0 0 -1.77271,-0.66145 c -1.48167,0 -2.67229,1.19062 -2.67229,2.67229 z m 2.61938,-5.10645 c 1.98437,0 3.6777,1.27 4.3127,3.0427 l -1.71979,0.97896 -4.36562,2.51354 0.0265,0.0265 c 0.47625,0.42334 1.08479,0.66146 1.74625,0.66146 0.92604,0 1.71979,-0.52917 2.2225,-1.24354 0.84666,-1.21708 2.14312,-0.76729 2.30187,-0.71438 -0.37042,2.14313 -2.24896,3.86292 -4.49792,3.86292 -2.51354,0 -4.57729,-2.03729 -4.57729,-4.57729 0,-2.48708 2.03729,-4.55083 4.55084,-4.55083 z m -25.95563,0 c 1.16417,0 2.2225,0.5027 2.93688,1.32291 0.71437,-0.82021 1.7727,-1.32291 2.93687,-1.32291 2.16958,0 3.94229,1.7727 3.94229,3.94229 v 5.13291 c -1.08479,0 -1.98437,-0.89958 -1.98437,-1.98437 v -3.12208 c 0,-1.0848 -0.87313,-1.95792 -1.95792,-1.95792 -1.05833,0 -1.93146,0.87312 -1.95792,1.93146 v 5.15937 c -1.08479,0 -1.98437,-0.89958 -1.98437,-1.98437 v -3.14854 c 0,-1.05834 -0.87313,-1.93146 -1.95792,-1.93146 -1.08478,0 -1.957903,0.87312 -1.957903,1.95791 v 5.13292 c -1.0848,0 -1.98438,-0.89958 -1.98438,-1.98437 v -3.12209 c 0.0265,-2.24896 1.79917,-4.02166 3.968743,-4.02166 z m 11.32417,3.9952 c 0,-0.89958 -0.18521,-1.71979 -0.52917,-2.43416 l 1.82563,-1.05834 c 0.52916,1.00542 0.66145,2.27542 0.66145,3.4925 v 5.05355 c -1.08479,0 -1.95791,-0.87313 -1.95791,-1.95792 z" />
  <path
     fill="#009baa"
     d="m 111.57289,184.82045 c -0.9525,-1.45521 -2.61937,-2.32833 -4.52437,-2.40771 0,0 3.12208,-1.64041 6.05896,1.08479 0.10583,0.0794 0.18521,0.18521 0.26458,0.29104 z" />
  <path
     fill="#0c1975"
     d="m 141.07349,180.90462 c 0,-0.34396 0.26458,-0.635 0.60854,-0.635 0.34396,0 0.635,0.29104 0.635,0.635 v 4.1275 c 0.55562,-0.89958 1.42875,-1.64042 2.88396,-1.64042 2.03729,0 3.20145,1.37584 3.20145,3.36021 v 4.65667 a 0.62177083,0.62177083 0 1 1 -1.24354,0 v -4.33917 c 0,-1.56104 -0.84666,-2.54 -2.32833,-2.54 -1.45521,0 -2.51354,1.05833 -2.51354,2.61938 v 4.25979 a 0.62177083,0.62177083 0 1 1 -1.24354,0 z m 8.17562,6.90562 v -0.0265 c 0,-2.38125 1.85208,-4.39209 4.39208,-4.39209 2.51355,0 4.36563,1.98438 4.36563,4.33917 v 0.0265 c 0,2.38125 -1.87854,4.39208 -4.39208,4.39208 -2.51355,0.0265 -4.36563,-1.95792 -4.36563,-4.33917 z m 7.46125,0 v -0.0265 c 0,-1.79917 -1.34937,-3.28084 -3.12208,-3.28084 -1.82563,0 -3.06917,1.48167 -3.06917,3.25438 v 0.0265 c 0,1.79916 1.32292,3.25437 3.09563,3.25437 1.85208,0 3.09562,-1.45521 3.09562,-3.22792 z m 2.24896,-3.6777 a 0.62177083,0.62177083 0 1 1 1.24354,0 v 0.87312 c 0.55563,-0.82021 1.29646,-1.5875 2.69875,-1.5875 1.37583,0 2.24896,0.74083 2.69875,1.66688 0.60854,-0.92605 1.48167,-1.66688 2.96333,-1.66688 1.93146,0 3.12209,1.29646 3.12209,3.38667 v 4.63021 a 0.621771,0.621771 0 1 1 -1.24354,0 v -4.36563 c 0,-1.61396 -0.82021,-2.54 -2.16959,-2.54 -1.27,0 -2.30187,0.9525 -2.30187,2.59292 v 4.28625 c 0,0.34396 -0.26459,0.635 -0.635,0.635 -0.34396,0 -0.60854,-0.26459 -0.60854,-0.635 v -4.36563 c 0,-1.56104 -0.82021,-2.48708 -2.16959,-2.48708 -1.32291,0 -2.32833,1.11125 -2.32833,2.64583 v 4.23334 a 0.62177083,0.62177083 0 1 1 -1.24354,0 v -7.3025 z m 17.83292,8.04333 c -2.30188,0 -4.18042,-1.77271 -4.18042,-4.36563 v -0.0265 c 0,-2.40771 1.69333,-4.36563 4.02167,-4.36563 2.48708,0 3.88937,2.03729 3.88937,4.25979 0,0.34396 -0.26458,0.58209 -0.58208,0.58209 h -6.05896 c 0.18521,1.82562 1.45521,2.83104 2.96333,2.83104 1.03188,0 1.79917,-0.39688 2.40771,-0.97896 0.10583,-0.0794 0.21167,-0.15875 0.34396,-0.15875 0.3175,0 0.55562,0.23812 0.55562,0.52917 0,0.15875 -0.0529,0.29104 -0.1852,0.39687 -0.79375,0.79375 -1.74625,1.29646 -3.175,1.29646 z m 2.48708,-4.86833 c -0.13229,-1.53459 -1.00542,-2.8575 -2.67229,-2.8575 -1.45521,0 -2.56646,1.21708 -2.72521,2.8575 z m 2.30187,3.6777 c -0.10583,-0.10583 -0.23812,-0.29104 -0.23812,-0.5027 0,-0.29105 0.21167,-0.52917 0.52917,-0.52917 0.10583,0 0.26458,0.0529 0.37041,0.15875 0.71438,0.66146 1.34938,0.92604 2.40771,0.92604 1.00542,0 1.74625,-0.52917 1.74625,-1.32292 v -0.0265 c 0,-0.84667 -0.97896,-1.16417 -2.09021,-1.48167 -1.32291,-0.37042 -2.77812,-0.82021 -2.77812,-2.38125 v -0.0265 c 0,-1.45521 1.19062,-2.40771 2.8575,-2.40771 1.05833,0 1.95791,0.42334 2.61937,0.97896 0.15875,0.13229 0.29104,0.29104 0.29104,0.52917 0,0.29104 -0.21166,0.50271 -0.52916,0.50271 -0.23813,0 -0.37042,-0.10584 -0.42334,-0.15875 -0.58208,-0.50271 -1.29645,-0.82021 -2.01083,-0.82021 -0.97896,0 -1.61396,0.52916 -1.61396,1.21708 v 0.0265 c 0,0.79375 1.03188,1.11125 2.16959,1.45521 1.29645,0.39687 2.69875,0.89958 2.69875,2.40771 v 0.0265 c 0,1.5875 -1.32292,2.51355 -2.9898,2.51355 -1.37583,0.0265 -2.46062,-0.47625 -3.01625,-1.0848 z" />
</svg>
