<?xml version="1.0" encoding="UTF-8"?>
<svg id="Layer_2" data-name="Layer 2" xmlns="http://www.w3.org/2000/svg" viewBox="0 0 61.2 42.05">
  <defs>
    <style>
      .cls-1 {
        fill: #0c1975;
      }

      .cls-2 {
        fill: #009baa;
      }
    </style>
  </defs>
  <g id="svg716">
    <g id="layer1">
      <path class="cls-1" d="M52.1,22.45v19.4c-4.1,0-7.5-3.4-7.5-7.5v-11.8c0-4.1-3.3-7.4-7.4-7.4s-7.3,3.3-7.4,7.3v19.5c-4.1,0-7.5-3.4-7.5-7.5v-11.9c0-4-3.3-7.3-7.4-7.3s-7.4,3.3-7.4,7.4v19.4c-4.1,0-7.5-3.4-7.5-7.5v-11.8C.1,14.25,6.8,7.55,15,7.55c4.4,0,8.4,1.9,11.1,5,2.7-3.1,6.7-5,11.1-5,8.2,0,14.9,6.7,14.9,14.9Z"/>
      <path class="cls-2" d="M61.2,7.05l-6.8,3.9c-3.6-5.5-9.9-8.8-17.1-9.1,0,0,11.8-6.2,22.9,4.1.4.3.7.7,1,1.1Z"/>
    </g>
  </g>
</svg>